# xmcd
#
# Track frame offsets: 
#        150
#        19048
#        37484
#        55037
#        75868
#        95084
#        117512
#        132462
#        150515
#        171623
#        192460
#
# Disc length: 2747 seconds
#
# Revision: 0
# Processed by: cddbd v1.4PL0 Copyright (c) Steve Scherf et al.
# Submitted via: ExactAudioCopy v0.90b4
#
DISCID=970ab90b
DTITLE=Roberto Ciotti - Walking
DYEAR=1999
DGENRE=Blues
TTITLE0=Walkin' In The Summer
TTITLE1=At The End
TTITLE2=Lonely Like A Blues
TTITLE3=Cool Man
TTITLE4=You Are Magic
TTITLE5=You Change My Life
TTITLE6=I Can't Believe
TTITLE7=Crystal Wings
TTITLE8=Angel
TTITLE9=I'm A Stranger
TTITLE10=Try Me
EXTD=
EXTT0=
EXTT1=
EXTT2=
EXTT3=
EXTT4=
EXTT5=
EXTT6=
EXTT7=
EXTT8=
EXTT9=
EXTT10=
PLAYORDER=
